<svg xmlns="http://www.w3.org/2000/svg" viewBox="0 0 603 182">
  <path fill="#ff9900" d="M374.00 141.27c-34.38 25.37-84.21 38.87-127.13 38.87-60.17 0-114.35-22.24-155.31-59.24-3.22-2.91-.33-6.87 3.53-4.61 44.21 25.72 98.86 41.18 155.31 41.18 38.07 0 79.93-7.89 118.48-24.24 5.81-2.47 10.68 3.82 5.12 7.97z"/>
  <path fill="#ff9900" d="M388.55 124.77c-4.39-5.62-29.05-2.66-40.12-1.34-3.37.41-3.89-2.52-.85-4.63 19.65-13.82 51.87-9.83 55.62-5.2 3.75 4.65-.98 36.93-19.44 52.33-2.84 2.37-5.54 1.11-4.28-2.03 4.15-10.38 13.47-33.93 9.07-39.13z"/>
  <path fill="#221f1f" d="M349.3 20.03V6.27c0-2.09 1.58-3.48 3.48-3.48h61.59c1.98 0 3.56 1.42 3.56 3.48v11.79c-.02 2-1.68 4.61-4.63 8.64l-31.89 45.55c11.84-.29 24.35 1.48 35.09 7.56 2.42 1.37 3.08 3.38 3.27 5.36v14.71c0 2.02-2.22 4.37-4.56 3.15-19.06-9.99-44.37-11.08-65.42.1-2.14 1.17-4.4-1.16-4.4-3.17v-13.97c0-2.25.03-6.09 2.33-9.51l36.93-52.97h-32.14c-1.98 0-3.56-1.4-3.56-3.48zM124.98 109.62H104.5c-1.87-.14-3.35-1.53-3.49-3.32V6.44c0-2.01 1.68-3.62 3.75-3.62h19.1c1.89.08 3.41 1.52 3.55 3.33v13.5h.37c4.76-12.93 13.72-18.96 25.79-18.96 12.25 0 19.91 6.03 25.42 18.96 4.74-12.93 15.51-18.96 27.11-18.96 8.23 0 17.22 3.39 22.71 11.01 6.22 8.47 4.96 20.78 4.96 31.56l-.02 62.95c0 2.01-1.68 3.64-3.75 3.64h-20.44c-1.94-.14-3.49-1.7-3.49-3.64V51.65c0-4.24.37-14.82-.55-18.84-1.46-6.72-5.85-8.61-11.51-8.61-4.74 0-9.71 3.17-11.72 8.24-2.02 5.07-1.83 13.54-1.83 19.21v54.56c0 2.01-1.68 3.64-3.75 3.64h-20.44c-1.96-.14-3.49-1.7-3.49-3.64V51.65c0-11.23 1.83-27.69-12.07-27.69-14.08 0-13.52 16.08-13.52 27.69v54.56c0 2.01-1.68 3.64-3.75 3.64zM321.52 .69c30.35 0 46.78 26.05 46.78 59.17 0 32 -18.44 57.38-46.78 57.38-29.61 0-45.69-26.05-45.69-58.49 0-32.64 16.26-58.06 45.69-58.06zm.18 21.42c-14.97 0-15.89 20.41-15.89 33.12 0 12.73-.18 39.91 15.71 39.91 15.71 0 16.44-21.92 16.44-35.28 0-8.79-.37-19.28-2.93-27.67-2.21-7.3-6.59-10.08-13.33-10.08zM83.62 109.62h-20.4c-1.94-.14-3.49-1.7-3.49-3.64l-.01-99.67c.17-1.85 1.78-3.3 3.75-3.3h19c1.71.08 3.1 1.22 3.44 2.83v15.24h.37c5.31-13.66 12.78-20.14 26.69-20.14 8.78 0 17.37 3.17 22.89 11.85 5.12 8.06 5.12 21.6 5.12 31.34v62.18c-.21 1.78-1.81 3.2-3.75 3.2h-20.52c-1.79-.14-3.25-1.49-3.43-3.2V50.37c0-11.01 1.28-27.06-12.25-27.06-4.76 0-9.13 3.19-11.32 8.04-2.76 6.12-3.12 12.22-3.12 19.02v55.84c-.02 2.01-1.72 3.64-3.78 3.64z"/>
</svg>