<svg xmlns="http://www.w3.org/2000/svg" viewBox="0 0 2500 525">
  <path fill="#7f54b3" d="M192.4 0h2115.2c38.6 0 73.5 15.6 98.8 40.9s40.9 60.3 40.9 98.8v245.5c0 38.6-15.6 73.5-40.9 98.8s-60.3 40.9-98.8 40.9H731.1l-71.8 0 0 0-156.8 0L192.4 525c-38.6 0-73.5-15.6-98.8-40.9S52.7 423.8 52.7 385.2V139.7c0-38.6 15.6-73.5 40.9-98.8S153.9 0 192.4 0z"/>
  <path fill="#fff" d="M247.4 96.5c-9.9 1.4-17.7 5.9-23.4 13.3-5.1 6.8-8.1 15.8-8.9 27.1-.8 11.7 1 24.6 5.5 38.8 4.5 14.2 11.1 26.7 19.8 37.6 8.7 10.9 17.5 17 26.4 18.4 4.1.6 8-.1 11.8-2.2 3.7-2.1 6.9-5.1 9.5-9.2 5.7-8.8 8.8-21.9 9.3-39.4.4-14.9-1.5-28.8-5.7-41.7-4.2-12.9-10.3-23.3-18.4-31.2-6.5-6.3-13.3-9.8-20.3-11.2-2-.4-3.8-.5-5.6-.3zM202.9 72.5c11.8-3.9 23.9-4.5 36.3-1.8 12.5 2.7 23.4 9 32.9 18.8 12.8 13.2 21.5 29.9 26 50.1 4.5 20.3 4.7 39.2.5 56.9-2.2 9.6-6 17.8-11.2 24.5-5.3 6.8-11.9 11.5-19.8 14.2-7.9 2.7-16.2 2.9-24.8.6-8.6-2.3-16.5-7.3-23.6-14.9-12.8-13.6-21.8-31.1-27.1-52.4-5.3-21.3-5.9-40.2-1.7-56.8 3.4-13.5 8-23.5 13.7-30.1 3.3-3.8 6.2-6.4 9-8.1 2.7-1.7 6.2-2.2 9.5-2.7l.3 1.7zM425.8 96.5c-9.9 1.4-17.7 5.9-23.4 13.3-5.1 6.8-8.1 15.8-8.9 27.1-.8 11.7 1 24.6 5.5 38.8 4.5 14.2 11.1 26.7 19.8 37.6 8.7 10.9 17.5 17 26.4 18.4 4.1.6 8-.1 11.8-2.2 3.7-2.1 6.9-5.1 9.5-9.2 5.7-8.8 8.8-21.9 9.3-39.4.4-14.9-1.5-28.8-5.7-41.7-4.2-12.9-10.3-23.3-18.4-31.2-6.5-6.3-13.3-9.8-20.3-11.2-2-.4-3.8-.5-5.6-.3zM381.3 72.5c11.8-3.9 23.9-4.5 36.3-1.8 12.5 2.7 23.4 9 32.9 18.8 12.8 13.2 21.5 29.9 26 50.1 4.5 20.3 4.7 39.2.5 56.9-2.2 9.6-6 17.8-11.2 24.5-5.3 6.8-11.9 11.5-19.8 14.2-7.9 2.7-16.2 2.9-24.8.6-8.6-2.3-16.5-7.3-23.6-14.9-12.8-13.6-21.8-31.1-27.1-52.4-5.3-21.3-5.9-40.2-1.7-56.8 3.4-13.5 8-23.5 13.7-30.1 3.3-3.8 6.2-6.4 9-8.1 2.7-1.7 6.2-2.2 9.5-2.7l.3 1.7zM585.9 72.5c4.1-1.4 8.3-1.3 12.6.2 4.3 1.5 7.6 4.5 9.8 9l40.2 84.4 11-94c.9-7.6 4.2-12.6 10-15 5.8-2.4 11.3-1.8 16.6 1.8 5.3 3.6 8.5 9.3 9.7 17.2l24.1 154.9c.6 4.1.3 7.7-.8 10.8-1.2 3.1-3.1 5.5-5.7 7.1-2.7 1.6-5.7 2.4-9 2.3-5.3-.2-9.6-2-12.9-5.4-3.4-3.4-5.5-8.2-6.5-14.5l-13-91.1-8.9 76c-.8 6.2-3.1 10.9-7 14-3.9 3.1-8.2 4.3-12.9 3.5-4.8-.7-8.8-3.3-12.1-7.8l-48.1-71.2 13 91.1c.6 4.1.3 7.7-.8 10.8-1.2 3.1-3.1 5.5-5.7 7.1-2.7 1.6-5.7 2.4-9 2.3-5.3-.2-9.6-2-12.9-5.4-3.4-3.4-5.5-8.2-6.5-14.5L537.9 88.3c-.7-4.6-.2-8.5 1.3-11.7 1.5-3.2 3.8-5.4 6.8-6.5l.1.3c3.1-1.2 6.3-1.3 9.6-.4 8.2 2.3 17.1 2.6 30.2 2.5z"/>
  <text x="730" y="330" font-family="'Segoe UI', Arial, sans-serif" font-weight="600" font-size="260" fill="#fff" letter-spacing="-5">Commerce</text>
</svg>