<svg width="512" height="104" viewBox="0 0 512 104" xmlns="http://www.w3.org/2000/svg" preserveAspectRatio="xMidYMid">
  <g fill-rule="evenodd">
    <path d="M157.27,0H16.1C7.16,0-.07,7.3,0,16.17V70.05c0,8.93,7.23,16.17,16.17,16.17H83.03l30.56,17.02-6.95-17.02h50.63c8.93,0,16.17-7.23,16.17-16.17V16.17C173.43,7.23,166.2,0,157.27,0ZM13.12,12.48c-1.99.14-3.47.85-4.47,2.2-1,1.28-1.35,2.91-1.13,4.75,4.18,26.59,8.08,44.53,11.7,53.82,1.42,3.4,3.05,5.03,4.96,4.89,2.98-.21,6.53-4.33,10.71-12.34,2.2-4.54,5.6-11.35,10.21-20.42,3.83,13.4,9.08,23.47,15.67,30.2,1.84,1.91,3.76,2.77,5.6,2.62,1.63-.14,2.91-.99,3.76-2.55.71-1.35.99-2.91.85-4.68-.43-6.45.21-15.45,1.98-27.01,1.84-11.91,4.11-20.49,6.88-25.6.57-.56.78-1.63.71-2.91-.14-1.63-.85-2.98-2.2-4.04s-2.84-1.36-4.47-1.22c-2.06.14-3.62,1.13-4.68,3.12-4.4,8.01-7.52,21-9.36,38.93-2.69-6.81-4.96-14.82-6.73-24.25-.78-4.18-2.69-6.17-5.81-5.96-2.13.14-3.91,1.56-5.33,4.25L26.45,55.23c-2.55-10.28-4.96-22.83-7.16-37.65-.5-3.69-2.56-5.39-6.17-5.1ZM149.75,17.58c5.03,1.06,8.79,3.76,11.34,8.23,2.27,3.83,3.41,8.44,3.41,13.97,0,7.3-1.84,13.97-5.53,20.07-4.25,7.09-9.78,10.63-16.66,10.63-1.21,0-2.48-.14-3.83-.43-5.03-1.06-8.79-3.76-11.34-8.22-2.27-3.9-3.41-8.58-3.41-14.04,0-7.3,1.84-13.97,5.53-20,4.33-7.09,9.86-10.63,16.73-10.63,1.2,0,2.48.14,3.83.43h-.07ZM146.77,55.94c2.62-2.34,4.4-5.81,5.39-10.49.28-1.63.5-3.41.5-5.25,0-2.06-.43-4.25-1.28-6.45-1.06-2.77-2.48-4.25-4.18-4.61-2.56-.5-5.03.92-7.38,4.4-1.91,2.69-3.12,5.53-3.76,8.44-.36,1.63-.5,3.41-.5,5.17,0,2.06.43,4.25,1.28,6.45,1.06,2.77,2.48,4.25,4.18,4.61,1.77.36,3.69-.43,5.74-2.27h.01ZM116.64,25.81c-2.56-4.47-6.38-7.16-11.34-8.22-1.35-.28-2.63-.43-3.83-.43-6.81,0-12.34,3.54-16.66,10.64-3.69,6.03-5.53,12.67-5.53,19.99,0,5.46,1.14,10.13,3.41,14.04,2.56,4.47,6.31,7.16,11.34,8.22,1.35.28,2.62.43,3.83.43,6.88,0,12.41-3.54,16.73-10.64,3.69-6.1,5.53-12.67,5.53-19.99,0-5.53-1.14-10.13-3.41-13.97l-.07-.07ZM107.7,45.45c-.99,4.68-2.77,8.15-5.39,10.49-2.06,1.84-3.97,2.63-5.74,2.27-1.7-.36-3.12-1.84-4.18-4.61-.85-2.2-1.28-4.4-1.28-6.45,0-1.77.14-3.54.5-5.17.64-2.91,1.84-5.74,3.76-8.44,2.34-3.47,4.82-5.03,7.38-4.4,1.7.36,3.12,1.84,4.18,4.61.85,2.2,1.28,4.4,1.28,6.45,0,1.84-.14,3.62-.5,5.25h-.01Z" fill="#7F54B3"/>
    <path d="M191.37,25.17c-4.75,4.68-7.09,10.64-7.09,17.87,0,7.73,2.34,14.04,7.02,18.79,4.68,4.75,10.78,7.16,18.36,7.16,2.2,0,4.68-.35,7.37-1.13v-11.49c-2.48.71-4.61,1.06-6.45,1.06-3.76,0-6.74-1.28-9.01-3.76-2.27-2.55-3.4-5.96-3.4-10.28,0-4.04,1.13-7.37,3.33-9.93,2.27-2.62,4.99-3.9,8.44-3.9,2.2,0,4.54.36,7.09,1.06v-11.49c-2.34-.64-4.96-.92-7.73-.92-7.23-.07-13.19,2.27-17.94,6.95h.01ZM240.58,18.15c-6.52,0-11.63,2.2-15.31,6.52-3.69,4.33-5.46,10.42-5.46,18.22,0,8.44,1.84,14.89,5.46,19.36,3.62,4.47,8.93,6.74,15.88,6.74,6.74,0,11.91-2.27,15.53-6.74,3.62-4.47,5.46-10.78,5.46-18.86,0-8.08-1.84-14.32-5.53-18.72-3.76-4.33-9.07-6.52-16.03-6.52ZM246.18,55.02c-1.28,1.98-3.19,2.98-5.6,2.98-2.27,0-3.97-.99-5.18-2.98s-1.77-5.96-1.77-12,2.34-13.9,7.09-13.9c4.96,0,7.52,4.68,7.52,14.11,0,5.81-.71,9.82-2.06,11.79ZM297.16,19.5l-2.55,10.85c-.64,2.77-1.28,5.6-1.84,8.51l-1.42,7.52c-1.35-7.52-3.19-16.44-5.53-26.87h-16.45l-6.17,48.29h12.34l3.33-33.25,8.44,33.25h8.79l8.08-33.18,3.47,33.18h12.91l-6.52-48.29h-16.87ZM356.22,19.5l-2.55,10.85c-.64,2.77-1.28,5.6-1.84,8.51l-1.42,7.52c-1.35-7.52-3.19-16.44-5.53-26.87h-16.45l-6.17,48.29h12.34l3.33-33.25,8.44,33.25h8.79l8.01-33.18,3.47,33.18h12.91l-6.52-48.29h-16.8ZM396.36,48.71h11.56v-9.99h-11.56v-8.86h13.33v-10.28h-26.38v48.29h26.45v-10.28h-13.4v-8.86-.02ZM446.48,41.05c1.35-2.2,2.06-4.47,2.06-6.81,0-4.54-1.77-8.15-5.32-10.78-3.54-2.62-8.44-3.97-14.54-3.97h-15.17v48.29h13.05v-22l.21.01,10.56,21.98h13.76l-10.42-21.77c2.48-1.13,4.47-2.77,5.81-4.96ZM426.49,40.27v-11.49c3.12.07,5.32.57,6.67,1.56,1.35.99,1.98,2.55,1.98,4.82,0,3.33-2.91,5.04-8.65,5.1ZM456.2,25.17c-4.75,4.68-7.09,10.64-7.09,17.87,0,7.73,2.34,14.04,7.02,18.79,4.68,4.75,10.78,7.16,18.37,7.16,2.2,0,4.68-.35,7.37-1.13v-11.49c-2.48.71-4.61,1.06-6.45,1.06-3.76,0-6.74-1.28-9.01-3.76-2.27-2.55-3.4-5.96-3.4-10.28,0-4.04,1.13-7.37,3.33-9.93,2.27-2.62,5-3.9,8.44-3.9,2.2,0,4.54.36,7.09,1.06v-11.49c-2.34-.64-4.96-.92-7.73-.92-7.09-.07-13.05,2.27-17.94,6.95ZM498.53,57.43v-8.72h11.55v-9.99h-11.55v-8.86h13.4v-10.28h-26.38v48.29h26.45v-10.28h-13.47v-.14-.02Z" fill="#000"/>
  </g>
</svg>